<svg width="34.000000" height="26.000000" viewBox="0 0 34 26" fill="none" xmlns="http://www.w3.org/2000/svg" xmlns:xlink="http://www.w3.org/1999/xlink">
	<desc>
			Created with Pixso.
	</desc>
	<defs>
		<linearGradient id="paint_linear_688_23498_0" x1="0.000002" y1="-0.000008" x2="33.999992" y2="26.126953" gradientUnits="userSpaceOnUse">
			<stop stop-color="#E6AC3C"/>
			<stop offset="1.000000" stop-color="#FFDA93"/>
		</linearGradient>
	</defs>
	<rect id="Rectangle" rx="4.303750" width="34.000000" height="26.000000" fill="url(#paint_linear_688_23498_0)" fill-opacity="1.000000"/>
	<rect id="Rectangle" x="0.269043" y="0.269531" rx="4.303750" width="33.462032" height="25.462030" stroke="#9F7E3B" stroke-opacity="1.000000" stroke-width="0.537969"/>
	<path id="Vector 174" d="M0.53 7.99L9.53 7.99C10.72 7.99 11.68 8.96 11.68 10.15L11.68 14.26L11.68 20.52L11.68 25.48M11.68 20.52L0.53 20.52M11.68 14.26L0.53 14.26" stroke="#000000" stroke-opacity="0.760000" stroke-width="0.537969"/>
	<path id="Vector 175" d="M33.46 7.99L22.84 7.99M22.84 0.53L22.84 7.99L22.84 14.26L22.84 20.52L22.84 25.48M22.84 20.52L33.46 20.52M22.84 14.26L33.46 14.26" stroke="#000000" stroke-opacity="0.760000" stroke-width="0.537969"/>
</svg>
