<svg width="42.000000" height="13.000000" viewBox="0 0 42 13" fill="none" xmlns="http://www.w3.org/2000/svg" xmlns:xlink="http://www.w3.org/1999/xlink">
	<desc>
			Created with Pixso.
	</desc>
	<defs>
		<linearGradient id="paint_linear_688_23485_0" x1="22.843996" y1="0.000000" x2="22.843996" y2="13.000000" gradientUnits="userSpaceOnUse">
			<stop stop-color="#FFFFFF"/>
			<stop offset="1.000000" stop-color="#FFFFFF" stop-opacity="0.749020"/>
		</linearGradient>
		<linearGradient id="paint_linear_688_23486_0" x1="4.116506" y1="0.250000" x2="4.116506" y2="7.102757" gradientUnits="userSpaceOnUse">
			<stop stop-color="#FFFFFF"/>
			<stop offset="1.000000" stop-color="#FFFFFF" stop-opacity="0.749020"/>
		</linearGradient>
	</defs>
	<path id="Vector 2" d="M14.91 12.86L17.03 0.25L20.42 0.25L18.3 12.86L14.91 12.86ZM30.54 0.52C29.57 0.17 28.54 -0.01 27.51 0C24.16 0 21.8 1.7 21.78 4.15C21.76 5.96 23.46 6.97 24.75 7.57C26.07 8.19 26.51 8.58 26.5 9.14C26.5 9.98 25.45 10.36 24.48 10.36C23.12 10.36 22.4 10.17 21.29 9.7L20.85 9.5L20.37 12.32C21.17 12.67 22.63 12.98 24.15 13C27.71 13 30.02 11.31 30.05 8.69C30.06 7.26 29.16 6.17 27.21 5.27C26.02 4.69 25.3 4.3 25.3 3.71C25.3 3.19 25.92 2.63 27.24 2.63C28.11 2.61 28.98 2.77 29.78 3.11L30.08 3.25L30.54 0.52ZM39.26 0.25L36.65 0.25C35.84 0.25 35.24 0.47 34.88 1.29L29.86 12.79L33.44 12.79C33.44 12.79 34.01 11.26 34.14 10.93L38.42 10.93C38.52 11.37 38.82 12.79 38.82 12.79L42 12.79L39.26 0.25ZM35.11 8.35C35.39 7.63 36.46 4.83 36.46 4.83C36.44 4.87 36.74 4.1 36.91 3.63L37.14 4.72C37.14 4.72 37.79 7.72 37.92 8.35L35.11 8.35ZM12.03 0.25L8.72 8.82L8.37 7.08C7.75 5.07 5.83 2.89 3.68 1.81L6.71 12.79L10.29 12.79L15.61 0.25L12.01 0.25L12.03 0.25Z" fill="url(#paint_linear_688_23485_0)" fill-opacity="1.000000" fill-rule="nonzero"/>
	<path id="Vector 1" d="M5.48 0.25L0.04 0.25L0 0.51C4.25 1.55 7.06 4.07 8.23 7.1L7.04 1.31C6.83 0.51 6.24 0.27 5.5 0.25L5.48 0.25Z" fill="url(#paint_linear_688_23486_0)" fill-opacity="1.000000" fill-rule="nonzero"/>
</svg>
