<svg width="39.000000" height="39.000000" viewBox="0 0 39 39" fill="none" xmlns="http://www.w3.org/2000/svg" xmlns:xlink="http://www.w3.org/1999/xlink">
	<desc>
			Created with Pixso.
	</desc>
	<defs>
		<clipPath id="clip802_11677">
			<rect id="settings" width="38.704105" height="38.704105" transform="translate(-0.467773 -0.576660)" fill="white" fill-opacity="0"/>
		</clipPath>
	</defs>
	<rect id="settings" width="38.704105" height="38.704105" transform="translate(-0.467773 -0.576660)" fill="#FFFFFF" fill-opacity="0"/>
	<g clip-path="url(#clip802_11677)">
		<path id="primary" d="M22.9 21.46C22.37 22.25 21.61 22.87 20.73 23.24C19.85 23.61 18.87 23.7 17.94 23.52C17 23.33 16.13 22.87 15.46 22.19C14.78 21.51 14.32 20.65 14.13 19.71C13.95 18.78 14.04 17.8 14.41 16.92C14.78 16.03 15.4 15.28 16.19 14.75C16.99 14.22 17.92 13.93 18.88 13.93C20.16 13.93 21.39 14.44 22.3 15.35C23.21 16.26 23.72 17.49 23.72 18.77C23.72 19.73 23.43 20.66 22.9 21.46ZM30.83 15.55C30.5 15.54 30.17 15.44 29.9 15.25C29.63 15.05 29.42 14.78 29.31 14.46C29.17 14.16 29.12 13.82 29.18 13.49C29.24 13.16 29.4 12.86 29.64 12.63L30.3 11.96C30.45 11.81 30.57 11.64 30.65 11.44C30.73 11.24 30.77 11.03 30.77 10.82C30.77 10.61 30.73 10.4 30.65 10.2C30.57 10 30.45 9.82 30.3 9.67L28.01 7.37C27.86 7.22 27.68 7.1 27.48 7.02C27.29 6.93 27.08 6.89 26.86 6.89C26.65 6.89 26.44 6.93 26.24 7.02C26.04 7.1 25.87 7.22 25.72 7.37L25.06 8.03C24.82 8.27 24.52 8.43 24.19 8.48C23.86 8.54 23.52 8.5 23.22 8.35C22.89 8.25 22.61 8.04 22.41 7.77C22.21 7.49 22.1 7.16 22.1 6.82L22.1 5.87C22.1 5.44 21.93 5.03 21.63 4.73C21.33 4.43 20.92 4.26 20.49 4.26L17.27 4.26C16.84 4.26 16.43 4.43 16.13 4.73C15.82 5.03 15.65 5.44 15.65 5.87L15.65 6.82C15.65 7.15 15.55 7.48 15.35 7.75C15.16 8.02 14.89 8.23 14.57 8.34C14.27 8.48 13.93 8.53 13.6 8.47C13.27 8.41 12.97 8.25 12.74 8.01L12.07 7.35C11.92 7.2 11.75 7.08 11.55 7C11.35 6.92 11.14 6.88 10.93 6.88C10.72 6.88 10.5 6.92 10.31 7C10.11 7.08 9.93 7.2 9.78 7.35L7.48 9.64C7.33 9.79 7.21 9.97 7.12 10.17C7.04 10.36 7 10.57 7 10.79C7 11 7.04 11.21 7.12 11.41C7.21 11.6 7.33 11.78 7.48 11.93L8.14 12.59C8.38 12.83 8.54 13.13 8.59 13.46C8.65 13.79 8.6 14.13 8.46 14.43C8.35 14.75 8.15 15.02 7.87 15.21C7.6 15.41 7.28 15.51 6.95 15.51L5.98 15.51C5.55 15.51 5.14 15.68 4.84 15.99C4.54 16.29 4.37 16.7 4.37 17.13L4.37 20.35C4.37 20.78 4.54 21.19 4.84 21.49C5.14 21.79 5.55 21.96 5.98 21.96L6.93 21.96C7.26 21.96 7.59 22.07 7.86 22.26C8.13 22.46 8.33 22.73 8.45 23.04C8.59 23.35 8.63 23.69 8.58 24.01C8.52 24.34 8.36 24.65 8.12 24.88L7.46 25.54C7.31 25.69 7.19 25.87 7.11 26.07C7.03 26.26 6.98 26.48 6.98 26.69C6.98 26.9 7.03 27.11 7.11 27.31C7.19 27.51 7.31 27.68 7.46 27.83L9.74 30.11C9.89 30.26 10.06 30.38 10.26 30.46C10.46 30.54 10.67 30.58 10.88 30.58C11.09 30.58 11.3 30.54 11.5 30.46C11.7 30.38 11.88 30.26 12.03 30.11L12.69 29.45C12.92 29.21 13.22 29.05 13.55 28.99C13.88 28.93 14.22 28.98 14.53 29.12C14.84 29.23 15.11 29.44 15.31 29.71C15.5 29.98 15.6 30.31 15.61 30.64L15.61 31.67C15.61 32.1 15.78 32.51 16.08 32.81C16.38 33.11 16.79 33.28 17.22 33.28L20.44 33.28C20.87 33.28 21.28 33.11 21.58 32.81C21.89 32.51 22.06 32.1 22.06 31.67L22.06 30.72C22.06 30.39 22.16 30.06 22.36 29.79C22.55 29.52 22.82 29.31 23.14 29.2C23.44 29.06 23.78 29.01 24.11 29.07C24.44 29.13 24.74 29.29 24.98 29.53L25.64 30.19C25.79 30.34 25.96 30.46 26.16 30.54C26.36 30.62 26.57 30.66 26.78 30.66C26.99 30.66 27.21 30.62 27.4 30.54C27.6 30.46 27.78 30.34 27.93 30.19L30.2 27.91C30.35 27.76 30.47 27.59 30.55 27.39C30.63 27.19 30.68 26.98 30.68 26.77C30.68 26.56 30.63 26.35 30.55 26.15C30.47 25.95 30.35 25.77 30.2 25.62L29.54 24.96C29.3 24.73 29.14 24.42 29.08 24.1C29.03 23.77 29.07 23.43 29.22 23.12C29.33 22.81 29.53 22.54 29.8 22.34C30.07 22.15 30.4 22.05 30.73 22.04L31.78 22.04C32.21 22.04 32.62 21.87 32.92 21.57C33.22 21.27 33.39 20.86 33.39 20.43L33.39 17.16C33.39 16.73 33.22 16.32 32.92 16.02C32.62 15.71 32.21 15.55 31.78 15.55L30.83 15.55Z" stroke="#111111" stroke-opacity="1.000000" stroke-width="1.451404" stroke-linejoin="round"/>
	</g>
</svg>
