<svg width="39.000000" height="39.000000" viewBox="0 0 39 39" fill="none" xmlns="http://www.w3.org/2000/svg" xmlns:xlink="http://www.w3.org/1999/xlink">
	<desc>
			Created with Pixso.
	</desc>
	<defs/>
	<rect id="transfer-cards" width="38.704105" height="38.704105" transform="translate(-0.389648 -0.576660)" fill="#FFFFFF" fill-opacity="0"/>
	<path id="Vector" d="M18.96 7.58L35.08 7.58" stroke="#000000" stroke-opacity="1.000000" stroke-width="1.451404" stroke-linejoin="round" stroke-linecap="round"/>
	<path id="Vector" d="M2.83 26.93L18.96 26.93" stroke="#000000" stroke-opacity="1.000000" stroke-width="1.451404" stroke-linejoin="round" stroke-linecap="round"/>
	<path id="Vector" d="M35.08 21.19C35.08 27.43 30.04 32.48 23.8 32.48M26.21 34.9L23.8 32.48L25.49 29.66" stroke="#000000" stroke-opacity="1.000000" stroke-width="1.451404" stroke-linejoin="round"/>
	<path id="Vector" d="M2.83 16.35C2.83 10.11 7.88 5.06 14.12 5.06M11.7 2.64L14.12 5.06L12.43 7.88" stroke="#000000" stroke-opacity="1.000000" stroke-width="1.451404" stroke-linejoin="round"/>
	<path id="vector" d="M18.96 12.32C18.96 14.1 20.4 15.55 22.18 15.55L31.86 15.55C33.64 15.55 35.08 14.1 35.08 12.32L35.08 5.87C35.08 4.09 33.64 2.64 31.86 2.64L22.18 2.64C20.4 2.64 18.96 4.09 18.96 5.87L18.96 12.32Z" stroke="#000000" stroke-opacity="1.000000" stroke-width="1.451404"/>
	<path id="vector" d="M2.83 31.67C2.83 33.45 4.27 34.9 6.06 34.9L15.73 34.9C17.51 34.9 18.96 33.45 18.96 31.67L18.96 25.22C18.96 23.44 17.51 22 15.73 22L6.06 22C4.27 22 2.83 23.44 2.83 25.22L2.83 31.67Z" stroke="#000000" stroke-opacity="1.000000" stroke-width="1.451404"/>
</svg>
