<svg width="32.000000" height="40.000000" viewBox="0 0 32 40" fill="none" xmlns="http://www.w3.org/2000/svg" xmlns:xlink="http://www.w3.org/1999/xlink">
	<desc>
			Created with Pixso.
	</desc>
	<defs>
		<clipPath id="clip23_8473">
			<rect id="file-6" width="32.000000" height="32.000000" fill="white" fill-opacity="0"/>
		</clipPath>
		<linearGradient id="paint_linear_23_8472_0" x1="6.666994" y1="4.000004" x2="25.333656" y2="28.000010" gradientUnits="userSpaceOnUse">
			<stop stop-color="#86D694"/>
			<stop offset="1.000000" stop-color="#2E7C07"/>
		</linearGradient>
		<linearGradient id="paint_linear_23_8472_1" x1="6.666994" y1="4.000004" x2="25.333656" y2="28.000010" gradientUnits="userSpaceOnUse">
			<stop stop-color="#86D694"/>
			<stop offset="1.000000" stop-color="#2E7C07"/>
		</linearGradient>
		<linearGradient id="paint_linear_23_8474_0" x1="14.000000" y1="36.000000" x2="18.000000" y2="40.000000" gradientUnits="userSpaceOnUse">
			<stop stop-color="#86D694"/>
			<stop offset="1.000000" stop-color="#2E7C07"/>
		</linearGradient>
	</defs>
	<rect id="file-6" width="32.000000" height="32.000000" fill="#FFFFFF" fill-opacity="0"/>
	<g clip-path="url(#clip23_8473)">
		<path id="primary" d="M25.33 6.66L25.33 26.66C25.33 27.02 25.19 27.35 24.94 27.6C24.69 27.85 24.35 28 24 28L8 28C7.64 28 7.3 27.85 7.05 27.6C6.8 27.35 6.66 27.02 6.66 26.66L6.66 5.33C6.66 4.97 6.8 4.64 7.05 4.39C7.3 4.14 7.64 4 8 4L22.66 4L25.33 6.66ZM22.66 4L22.66 6.66L25.33 6.66L22.66 4ZM20 22.66L12 22.66L20 22.66ZM12 17.33L20 17.33L12 17.33ZM12 12L20 12L12 12ZM12.02 12.98L12 13C11.44 13 11 12.55 11 12C11 11.44 11.44 11 12 11L12.02 11.01L12.02 12.98ZM19.98 11.01L20 11C20.56 11 21 11.44 21 12C21 12.55 20.56 13 20 13L19.98 12.98L19.98 11.01Z" fill="url(#paint_linear_23_8472_0)" fill-opacity="1.000000" fill-rule="nonzero"/>
		<path id="primary" d="M25.33 26.66C25.33 27.02 25.19 27.35 24.94 27.6C24.69 27.85 24.35 28 24 28L8 28C7.64 28 7.3 27.85 7.05 27.6C6.8 27.35 6.66 27.02 6.66 26.66L6.66 5.33C6.66 4.97 6.8 4.64 7.05 4.39C7.3 4.14 7.64 4 8 4L22.66 4L25.33 6.66L25.33 26.66ZM22.66 4L22.66 6.66L25.33 6.66M25.33 6.66L22.66 4M12 22.66L20 22.66L12 22.66ZM20 17.33L12 17.33L20 17.33ZM12 12L20 12" stroke="url(#paint_linear_23_8472_1)" stroke-opacity="1.000000" stroke-width="2.000000" stroke-linejoin="round" stroke-linecap="round"/>
	</g>
	<circle id="circle" cx="16.000000" cy="38.000000" r="2.000000" fill="url(#paint_linear_23_8474_0)" fill-opacity="1.000000"/>
	<path id="Line 4" d="M12 12L20 12" stroke="#111111" stroke-opacity="1.000000" stroke-width="2.000000" stroke-linecap="round"/>
	<path id="Line 5" d="M12 22L20 22" stroke="#111111" stroke-opacity="1.000000" stroke-width="2.000000" stroke-linecap="round"/>
	<path id="Line 6" d="M12 17L20 17" stroke="#111111" stroke-opacity="1.000000" stroke-width="2.000000" stroke-linecap="round"/>
</svg>
