<svg width="32.000000" height="40.000000" viewBox="0 0 32 40" fill="none" xmlns="http://www.w3.org/2000/svg" xmlns:xlink="http://www.w3.org/1999/xlink">
	<desc>
			Created with Pixso.
	</desc>
	<defs>
		<clipPath id="clip23_9206">
			<rect id="home alt 2" width="32.000000" height="32.000000" fill="white" fill-opacity="0"/>
		</clipPath>
		<linearGradient id="paint_linear_23_9204_0" x1="6.666992" y1="13.333012" x2="25.333652" y2="28.003117" gradientUnits="userSpaceOnUse">
			<stop stop-color="#86D694"/>
			<stop offset="1.000000" stop-color="#2E7C07"/>
		</linearGradient>
		<linearGradient id="paint_linear_23_9204_1" x1="6.666992" y1="13.333012" x2="25.333652" y2="28.003117" gradientUnits="userSpaceOnUse">
			<stop stop-color="#86D694"/>
			<stop offset="1.000000" stop-color="#2E7C07"/>
		</linearGradient>
		<linearGradient id="paint_linear_23_9205_0" x1="4.000002" y1="4.000004" x2="28.000000" y2="16.000008" gradientUnits="userSpaceOnUse">
			<stop stop-color="#86D694"/>
			<stop offset="1.000000" stop-color="#2E7C07"/>
		</linearGradient>
		<linearGradient id="paint_linear_23_9205_1" x1="4.000002" y1="4.000004" x2="28.000000" y2="16.000008" gradientUnits="userSpaceOnUse">
			<stop stop-color="#86D694"/>
			<stop offset="1.000000" stop-color="#2E7C07"/>
		</linearGradient>
		<linearGradient id="paint_linear_23_9207_0" x1="14.000000" y1="36.000000" x2="18.000000" y2="40.000000" gradientUnits="userSpaceOnUse">
			<stop stop-color="#86D694"/>
			<stop offset="1.000000" stop-color="#2E7C07"/>
		</linearGradient>
	</defs>
	<rect id="home alt 2" width="32.000000" height="32.000000" fill="#FFFFFF" fill-opacity="0"/>
	<g clip-path="url(#clip23_9206)">
		<path id="primary" d="M25.33 13.33L25.33 27.06C25.3 27.33 25.18 27.58 24.97 27.76C24.76 27.93 24.49 28.02 24.22 28L19.06 28L19.06 18.79L12.93 18.79L12.93 28L7.77 28C7.5 28.02 7.23 27.93 7.02 27.76C6.82 27.58 6.69 27.33 6.66 27.06L6.66 13.33L25.33 13.33ZM24.35 13.35L24.33 13.33C24.33 12.77 24.77 12.33 25.33 12.33C25.89 12.33 26.33 12.77 26.33 13.33L26.31 13.35L24.35 13.35ZM5.68 13.35L5.66 13.33C5.66 12.77 6.1 12.33 6.66 12.33C7.22 12.33 7.66 12.77 7.66 13.33L7.64 13.35L5.68 13.35Z" fill="url(#paint_linear_23_9204_0)" fill-opacity="1.000000" fill-rule="nonzero"/>
		<path id="primary" d="M25.33 13.33L25.33 27.06C25.3 27.33 25.18 27.58 24.97 27.76C24.76 27.93 24.49 28.02 24.22 28L19.06 28L19.06 18.79L12.93 18.79L12.93 28L7.77 28C7.5 28.02 7.23 27.93 7.02 27.76C6.82 27.58 6.69 27.33 6.66 27.06L6.66 13.33" stroke="url(#paint_linear_23_9204_1)" stroke-opacity="1.000000" stroke-width="2.000000" stroke-linejoin="round" stroke-linecap="round"/>
		<path id="primary" d="M28 16L16 4L4 16L28 16ZM28.67 15.29L28.7 15.29C29.1 15.68 29.1 16.31 28.7 16.7C28.31 17.1 27.68 17.1 27.29 16.7L27.29 16.67L28.67 15.29ZM4.7 16.67L4.7 16.7C4.31 17.1 3.68 17.1 3.29 16.7C2.89 16.31 2.89 15.68 3.29 15.29L3.32 15.29L4.7 16.67Z" fill="url(#paint_linear_23_9205_0)" fill-opacity="1.000000" fill-rule="nonzero"/>
		<path id="primary" d="M28 16L16 4L4 16" stroke="url(#paint_linear_23_9205_1)" stroke-opacity="1.000000" stroke-width="2.000000" stroke-linejoin="round" stroke-linecap="round"/>
	</g>
	<circle id="circle" cx="16.000000" cy="38.000000" r="2.000000" fill="url(#paint_linear_23_9207_0)" fill-opacity="1.000000"/>
</svg>
