<svg width="32.000000" height="40.000000" viewBox="0 0 32 40" fill="none" xmlns="http://www.w3.org/2000/svg" xmlns:xlink="http://www.w3.org/1999/xlink">
	<desc>
			Created with Pixso.
	</desc>
	<defs>
		<clipPath id="clip23_8370">
			<rect id="user" width="32.000000" height="32.000000" fill="white" fill-opacity="0"/>
		</clipPath>
		<linearGradient id="paint_linear_23_8369_0" x1="5.333010" y1="4.000006" x2="26.666338" y2="28.000006" gradientUnits="userSpaceOnUse">
			<stop stop-color="#86D694"/>
			<stop offset="1.000000" stop-color="#2E7C07"/>
		</linearGradient>
		<linearGradient id="paint_linear_23_8369_1" x1="5.333010" y1="4.000006" x2="26.666338" y2="28.000006" gradientUnits="userSpaceOnUse">
			<stop stop-color="#86D694"/>
			<stop offset="1.000000" stop-color="#2E7C07"/>
		</linearGradient>
		<linearGradient id="paint_linear_23_8371_0" x1="14.000000" y1="36.000000" x2="18.000000" y2="40.000000" gradientUnits="userSpaceOnUse">
			<stop stop-color="#86D694"/>
			<stop offset="1.000000" stop-color="#2E7C07"/>
		</linearGradient>
	</defs>
	<rect id="user" width="32.000000" height="32.000000" fill="#FFFFFF" fill-opacity="0"/>
	<g clip-path="url(#clip23_8370)">
		<path id="primary" d="M21.33 9.33C21.33 10.38 21.02 11.41 20.43 12.29C19.84 13.17 19.01 13.85 18.04 14.26C17.06 14.66 15.99 14.77 14.95 14.56C13.92 14.35 12.97 13.85 12.22 13.1C11.48 12.35 10.97 11.4 10.76 10.37C10.56 9.33 10.66 8.26 11.07 7.29C11.47 6.31 12.15 5.48 13.03 4.89C13.91 4.31 14.94 4 16 4C17.41 4 18.77 4.56 19.77 5.56C20.77 6.56 21.33 7.91 21.33 9.33ZM20 20L12 20C10.23 20 8.53 20.7 7.28 21.95C6.03 23.2 5.33 24.89 5.33 26.66C5.33 27.02 5.47 27.35 5.72 27.6C5.97 27.85 6.31 28 6.66 28L25.33 28C25.68 28 26.02 27.85 26.27 27.6C26.52 27.35 26.66 27.02 26.66 26.66C26.66 24.89 25.96 23.2 24.71 21.95C23.46 20.7 21.76 20 20 20Z" fill="url(#paint_linear_23_8369_0)" fill-opacity="1.000000" fill-rule="nonzero"/>
		<path id="primary" d="M20.43 12.29C19.84 13.17 19.01 13.85 18.04 14.26C17.06 14.66 15.99 14.77 14.95 14.56C13.92 14.35 12.97 13.85 12.22 13.1C11.48 12.35 10.97 11.4 10.76 10.37C10.56 9.33 10.66 8.26 11.07 7.29C11.47 6.31 12.15 5.48 13.03 4.89C13.91 4.31 14.94 4 16 4C17.41 4 18.77 4.56 19.77 5.56C20.77 6.56 21.33 7.91 21.33 9.33C21.33 10.38 21.02 11.41 20.43 12.29ZM12 20C10.23 20 8.53 20.7 7.28 21.95C6.03 23.2 5.33 24.89 5.33 26.66C5.33 27.02 5.47 27.35 5.72 27.6C5.97 27.85 6.31 28 6.66 28L25.33 28C25.68 28 26.02 27.85 26.27 27.6C26.52 27.35 26.66 27.02 26.66 26.66C26.66 24.89 25.96 23.2 24.71 21.95C23.46 20.7 21.76 20 20 20L12 20Z" stroke="url(#paint_linear_23_8369_1)" stroke-opacity="1.000000" stroke-width="2.000000" stroke-linejoin="round"/>
	</g>
	<circle id="circle" cx="16.000000" cy="38.000000" r="2.000000" fill="url(#paint_linear_23_8371_0)" fill-opacity="1.000000"/>
</svg>
